<svg width="68" height="68" viewBox="0 0 68 68" fill="none" xmlns="http://www.w3.org/2000/svg">
<path fill-rule="evenodd" clip-rule="evenodd" d="M33.5167 0C15.0064 0 0 15.0064 0 33.5167C0 52.0271 15.0064 67.0335 33.5167 67.0335C52.0271 67.0335 67.0335 52.0271 67.0335 33.5167C67.0335 15.0064 52.0271 0 33.5167 0ZM44.8119 26.53C45.3669 25.9554 45.674 25.1857 45.6671 24.3868C45.6601 23.5879 45.3397 22.8237 44.7748 22.2587C44.2098 21.6938 43.4456 21.3733 42.6467 21.3664C41.8478 21.3595 41.0781 21.6666 40.5035 22.2216L33.5167 29.2083L26.53 22.2216C26.249 21.9306 25.9127 21.6985 25.541 21.5388C25.1692 21.3791 24.7694 21.295 24.3648 21.2915C23.9603 21.288 23.559 21.3651 23.1846 21.5183C22.8101 21.6715 22.4699 21.8977 22.1838 22.1838C21.8977 22.4699 21.6715 22.8101 21.5183 23.1846C21.3651 23.559 21.288 23.9603 21.2915 24.3648C21.295 24.7694 21.3791 25.1692 21.5388 25.541C21.6985 25.9127 21.9306 26.249 22.2216 26.53L29.2083 33.5167L22.2216 40.5035C21.9306 40.7845 21.6985 41.1208 21.5388 41.4925C21.3791 41.8642 21.295 42.2641 21.2915 42.6686C21.288 43.0732 21.3651 43.4744 21.5183 43.8489C21.6715 44.2234 21.8977 44.5636 22.1838 44.8497C22.4699 45.1357 22.8101 45.362 23.1846 45.5152C23.559 45.6684 23.9603 45.7455 24.3648 45.742C24.7694 45.7385 25.1692 45.6544 25.541 45.4947C25.9127 45.335 26.249 45.1029 26.53 44.8119L33.5167 37.8252L40.5035 44.8119C41.0781 45.3669 41.8478 45.674 42.6467 45.6671C43.4456 45.6601 44.2098 45.3397 44.7748 44.7748C45.3397 44.2098 45.6601 43.4456 45.6671 42.6467C45.674 41.8478 45.3669 41.0781 44.8119 40.5035L37.8252 33.5167L44.8119 26.53Z" fill="black"/>
</svg>
