<svg width="52" height="52" viewBox="0 0 52 52" fill="none" xmlns="http://www.w3.org/2000/svg">
<circle cx="25.8072" cy="26.1927" r="25.8072" fill="#121212"/>
<path d="M28.3105 38.7379C27.3209 38.7391 26.361 38.3994 25.5924 37.7761L14.929 28.9736C14.5108 28.6407 14.1731 28.2177 13.941 27.7363C13.7089 27.2548 13.5884 26.7272 13.5884 26.1927C13.5884 25.6582 13.7089 25.1306 13.941 24.6491C14.1731 24.1677 14.5108 23.7448 14.929 23.4119L25.5924 14.6093C26.2344 14.095 27.0079 13.7713 27.8249 13.6752C28.6419 13.579 29.4694 13.7144 30.2132 14.0657C30.8596 14.3506 31.4104 14.8156 31.7997 15.4051C32.189 15.9947 32.4004 16.6838 32.4086 17.3902V34.9952C32.4004 35.7016 32.189 36.3908 31.7997 36.9803C31.4104 37.5698 30.8596 38.0348 30.2132 38.3197C29.6155 38.5915 28.9671 38.734 28.3105 38.7379Z" fill="white"/>
</svg>
