<svg width="52" height="53" viewBox="0 0 52 53" fill="none" xmlns="http://www.w3.org/2000/svg">
<circle cx="26.1928" cy="26.4759" r="25.8072" transform="rotate(-180 26.1928 26.4759)" fill="#121212"/>
<path d="M23.6895 13.9307C24.6791 13.9295 25.639 14.2691 26.4076 14.8925L37.071 23.695C37.4892 24.0279 37.8269 24.4508 38.059 24.9323C38.2911 25.4138 38.4116 25.9414 38.4116 26.4759C38.4116 27.0104 38.2911 27.538 38.059 28.0194C37.8269 28.5009 37.4892 28.9238 37.071 29.2567L26.4076 38.0593C25.7656 38.5736 24.9921 38.8973 24.1751 38.9934C23.3581 39.0895 22.5306 38.9542 21.7868 38.6029C21.1404 38.3179 20.5896 37.8529 20.2003 37.2634C19.811 36.6739 19.5996 35.9848 19.5914 35.2784L19.5914 17.6733C19.5996 16.9669 19.811 16.2778 20.2003 15.6883C20.5896 15.0988 21.1404 14.6338 21.7868 14.3489C22.3845 14.0771 23.0329 13.9346 23.6895 13.9307Z" fill="white"/>
</svg>
