<svg width="41" height="40" viewBox="0 0 41 40" fill="none" xmlns="http://www.w3.org/2000/svg">
<path d="M39.962 11.8062C39.9396 10.1267 39.6247 8.46386 39.0313 6.89212C38.5167 5.56637 37.7308 4.36234 36.7238 3.35698C35.7168 2.35162 34.5107 1.56703 33.1828 1.05333C31.6287 0.470911 29.9868 0.155985 28.3272 0.121965C26.1903 0.0266106 25.5129 0 20.0886 0C14.6643 0 13.9691 1.48698e-07 11.8478 0.121965C10.1889 0.156235 8.54784 0.471157 6.99442 1.05333C5.66625 1.56667 4.46004 2.35114 3.45296 3.35654C2.44587 4.36195 1.6601 5.56616 1.14591 6.89212C0.561347 8.44247 0.24658 10.0812 0.215209 11.7374C0.119696 13.8729 0.0908203 14.5493 0.0908203 19.9645C0.0908203 25.3798 0.0908203 26.0716 0.215209 28.1916C0.248528 29.8503 0.561722 31.4869 1.14591 33.0414C1.66096 34.3669 2.44732 35.5706 3.45474 36.5756C4.46216 37.5806 5.66848 38.3647 6.99664 38.8779C8.5458 39.4838 10.1872 39.8212 11.85 39.8758C13.9891 39.9712 14.6666 40 20.0908 40C25.5151 40 26.2103 40 28.3316 39.8758C29.9912 39.8432 31.6332 39.529 33.1872 38.9467C34.5148 38.4324 35.7206 37.6476 36.7275 36.6423C37.7345 35.637 38.5206 34.4333 39.0357 33.1079C39.6199 31.5556 39.9331 29.9191 39.9664 28.2581C40.0619 26.1249 40.0908 25.4485 40.0908 20.031C40.0864 14.6158 40.0864 13.9284 39.962 11.8062ZM20.0753 30.2051C14.4022 30.2051 9.8065 25.617 9.8065 19.9534C9.8065 14.2898 14.4022 9.70174 20.0753 9.70174C22.7987 9.70174 25.4106 10.7818 27.3364 12.7044C29.2622 14.627 30.344 17.2345 30.344 19.9534C30.344 22.6724 29.2622 25.2799 27.3364 27.2025C25.4106 29.125 22.7987 30.2051 20.0753 30.2051ZM30.7528 11.7131C30.4382 11.7133 30.1267 11.6517 29.8361 11.5317C29.5454 11.4116 29.2813 11.2356 29.0589 11.0135C28.8365 10.7915 28.6602 10.5279 28.5399 10.2377C28.4197 9.94753 28.358 9.63655 28.3583 9.32254C28.3583 9.00876 28.4202 8.69805 28.5404 8.40816C28.6607 8.11826 28.837 7.85486 29.0593 7.63298C29.2815 7.4111 29.5454 7.2351 29.8357 7.11502C30.1261 6.99495 30.4373 6.93314 30.7516 6.93314C31.0659 6.93314 31.3772 6.99495 31.6675 7.11502C31.9579 7.2351 32.2218 7.4111 32.444 7.63298C32.6663 7.85486 32.8426 8.11826 32.9628 8.40816C33.0831 8.69805 33.145 9.00876 33.145 9.32254C33.145 10.6442 32.0744 11.7131 30.7528 11.7131Z" fill="#121212"/>
<path d="M20.091 26.6666C23.7729 26.6666 26.7577 23.6818 26.7577 19.9999C26.7577 16.318 23.7729 13.3333 20.091 13.3333C16.4091 13.3333 13.4243 16.318 13.4243 19.9999C13.4243 23.6818 16.4091 26.6666 20.091 26.6666Z" fill="#121212"/>
</svg>
