<svg width="42" height="36" viewBox="0 0 42 36" fill="none" xmlns="http://www.w3.org/2000/svg">
<path d="M41.0708 8.12393C40.8912 12.0814 38.1032 17.4952 32.7147 24.3734C27.1446 31.5542 22.4258 35.1445 18.564 35.1445C16.1724 35.1445 14.1517 32.954 12.5 28.5866C11.3989 24.5745 10.2997 20.5624 9.18685 16.5601C7.96272 12.1926 6.64879 10.0021 5.23333 10.0021C4.93071 10.0021 3.85301 10.6464 2.0217 11.9154L0.0908203 9.44567C2.11151 7.67684 4.11267 5.92167 6.07675 4.15479C8.771 1.84125 10.8054 0.630784 12.1525 0.507786C15.3407 0.209075 17.3067 2.36448 18.0486 6.99937C18.8452 11.9896 19.3957 15.1017 19.7101 16.3121C20.6316 20.4589 21.6429 22.5265 22.7421 22.5265C23.5952 22.5265 24.8877 21.1832 26.6058 18.4929C28.3238 15.8025 29.2434 13.7584 29.3684 12.3566C29.6144 10.0333 28.6948 8.87754 26.6058 8.87754C25.6296 8.87754 24.6183 9.10011 23.5738 9.54524C25.5847 2.99899 29.4347 -0.181396 35.118 0.0079823C39.3293 0.119267 41.3168 2.83109 41.0708 8.12198V8.12393Z" fill="black"/>
</svg>
